<svg xmlns="http://www.w3.org/2000/svg" width="2732" height="2732" viewBox="0 0 1000 1000"><rect width="1000" height="1000" fill="#f2c400"/><g transform="translate(280 280) scale(2.2)"><polygon points="98,43 102,43 103.3,10 96.7,10" fill="#e5007e" transform="rotate(0 100 100)"/><polygon points="98,43 102,43 103.3,10 96.7,10" fill="#e0202a" transform="rotate(18 100 100)"/><polygon points="98,43 102,43 103.3,10 96.7,10" fill="#e0202a" transform="rotate(36 100 100)"/><polygon points="98,43 102,43 103.3,10 96.7,10" fill="#e0202a" transform="rotate(54 100 100)"/><polygon points="98,43 102,43 103.3,10 96.7,10" fill="#e0202a" transform="rotate(72 100 100)"/><polygon points="98,43 102,43 103.3,10 96.7,10" fill="#0053c0" transform="rotate(90 100 100)"/><polygon points="98,43 102,43 103.3,10 96.7,10" fill="#e0202a" transform="rotate(108 100 100)"/><polygon points="98,43 102,43 103.3,10 96.7,10" fill="#e0202a" transform="rotate(126 100 100)"/><polygon points="98,43 102,43 103.3,10 96.7,10" fill="#e0202a" transform="rotate(144 100 100)"/><polygon points="98,43 102,43 103.3,10 96.7,10" fill="#e0202a" transform="rotate(162 100 100)"/><polygon points="98,43 102,43 103.3,10 96.7,10" fill="#e5007e" transform="rotate(180 100 100)"/><polygon points="98,43 102,43 103.3,10 96.7,10" fill="#e0202a" transform="rotate(198 100 100)"/><polygon points="98,43 102,43 103.3,10 96.7,10" fill="#e0202a" transform="rotate(216 100 100)"/><polygon points="98,43 102,43 103.3,10 96.7,10" fill="#e0202a" transform="rotate(234 100 100)"/><polygon points="98,43 102,43 103.3,10 96.7,10" fill="#e0202a" transform="rotate(252 100 100)"/><polygon points="98,43 102,43 103.3,10 96.7,10" fill="#0053c0" transform="rotate(270 100 100)"/><polygon points="98,43 102,43 103.3,10 96.7,10" fill="#e0202a" transform="rotate(288 100 100)"/><polygon points="98,43 102,43 103.3,10 96.7,10" fill="#e0202a" transform="rotate(306 100 100)"/><polygon points="98,43 102,43 103.3,10 96.7,10" fill="#e0202a" transform="rotate(324 100 100)"/><polygon points="98,43 102,43 103.3,10 96.7,10" fill="#e0202a" transform="rotate(342 100 100)"/><path d="M113.2 58 A44 44 0 1 0 142 86.8 Z" fill="#e0202a" stroke="#171106" stroke-width="4.5" stroke-linejoin="round"/><line x1="64" y1="84" x2="102" y2="84" stroke="#171106" stroke-width="3.2" stroke-linecap="round"/><line x1="61" y1="98" x2="136" y2="98" stroke="#171106" stroke-width="3.2" stroke-linecap="round"/><line x1="62" y1="112" x2="128" y2="112" stroke="#171106" stroke-width="3.2" stroke-linecap="round"/><line x1="68" y1="126" x2="98" y2="126" stroke="#171106" stroke-width="3.2" stroke-linecap="round"/><path d="M113.2 58 L113.2 86.8 L142 86.8 Z" fill="#0053c0" stroke="#171106" stroke-width="3" stroke-linejoin="round"/></g></svg>